<svg width="52" height="52" viewBox="0 0 52 52" fill="none" xmlns="http://www.w3.org/2000/svg">
<rect width="52" height="52" rx="26" fill="#2CDFC9"/>
<path d="M24 36H28C33 36 35 34 35 29V23C35 18 33 16 28 16H24C19 16 17 18 17 23V29C17 34 19 36 24 36Z" stroke="white" stroke-width="1.5" stroke-linecap="round" stroke-linejoin="round"/>
<path d="M30.5 21.5801V22.5801C30.5 23.4001 29.83 24.0801 29 24.0801H23C22.18 24.0801 21.5 23.4101 21.5 22.5801V21.5801C21.5 20.7601 22.17 20.0801 23 20.0801H29C29.83 20.0801 30.5 20.7501 30.5 21.5801Z" stroke="white" stroke-width="1.5" stroke-linecap="round" stroke-linejoin="round"/>
<path d="M22.1361 28H22.1477" stroke="white" stroke-width="2" stroke-linecap="round" stroke-linejoin="round"/>
<path d="M25.9955 28H26.007" stroke="white" stroke-width="2" stroke-linecap="round" stroke-linejoin="round"/>
<path d="M29.8549 28H29.8664" stroke="white" stroke-width="2" stroke-linecap="round" stroke-linejoin="round"/>
<path d="M22.1361 31.5H22.1477" stroke="white" stroke-width="2" stroke-linecap="round" stroke-linejoin="round"/>
<path d="M25.9955 31.5H26.007" stroke="white" stroke-width="2" stroke-linecap="round" stroke-linejoin="round"/>
<path d="M29.8549 31.5H29.8664" stroke="white" stroke-width="2" stroke-linecap="round" stroke-linejoin="round"/>
</svg>
