<svg width="60" height="60" viewBox="0 0 60 60" fill="none" xmlns="http://www.w3.org/2000/svg">
<rect width="60" height="60" rx="20" fill="#F2F4F8"/>
<path d="M36.1437 30C35.7937 26.6112 34.4437 17.5 29.9999 17.5C25.5574 17.5 24.2062 26.6112 23.8574 30" stroke="#1758BA" stroke-width="1.5"/>
<path d="M25.9375 38.75C25.9375 38.5014 25.8387 38.2629 25.6629 38.0871C25.4871 37.9113 25.2486 37.8125 25 37.8125C24.7514 37.8125 24.5129 37.9113 24.3371 38.0871C24.1613 38.2629 24.0625 38.5014 24.0625 38.75H25.9375ZM29.0625 30V40H30.9375V30H29.0625ZM25.9375 40V38.75H24.0625V40H25.9375ZM30 30.9375H41.905V29.0625H30V30.9375ZM30.595 16.5625H29.405V18.4375H30.595V16.5625ZM18.095 30.9375H30V29.0625H18.095V30.9375ZM16.5625 29.405C16.5625 30.2512 17.2488 30.9375 18.095 30.9375V29.0625C18.2837 29.0625 18.4375 29.2162 18.4375 29.405H16.5625ZM43.4375 29.405C43.4375 22.3125 37.6875 16.5625 30.595 16.5625V18.4375C32.0353 18.4375 33.4614 18.7212 34.7921 19.2724C36.1227 19.8235 37.3318 20.6314 38.3502 21.6498C39.3686 22.6682 40.1765 23.8773 40.7276 25.2079C41.2788 26.5386 41.5625 27.9647 41.5625 29.405H43.4375ZM41.905 30.9375C42.7512 30.9375 43.4375 30.2512 43.4375 29.405H41.5625C41.5625 29.2162 41.7162 29.0625 41.905 29.0625V30.9375ZM27.5 41.5625C26.6375 41.5625 25.9375 40.8625 25.9375 40H24.0625C24.0625 40.9117 24.4247 41.786 25.0693 42.4307C25.714 43.0753 26.5883 43.4375 27.5 43.4375V41.5625ZM29.405 16.5625C22.3125 16.5625 16.5625 22.3125 16.5625 29.405H18.4375C18.4375 26.4962 19.593 23.7066 21.6498 21.6498C23.7066 19.593 26.4962 18.4375 29.405 18.4375V16.5625ZM29.0625 40C29.0625 40.8625 28.3625 41.5625 27.5 41.5625V43.4375C28.4117 43.4375 29.286 43.0753 29.9307 42.4307C30.5753 41.786 30.9375 40.9117 30.9375 40H29.0625Z" fill="#1758BA"/>
<path d="M38.576 34.1274H35.7214C34.7139 34.1274 34.4864 34.6312 34.3618 35.2541L33.9014 37.4479H40.4014L39.941 35.2541C39.8055 34.6312 39.5835 34.1274 38.576 34.1274Z" stroke="#2CDFC9" stroke-linecap="round" stroke-linejoin="round"/>
<path d="M41.2029 41.0287C41.2462 41.5054 40.8671 41.917 40.3796 41.917H39.6158C39.1771 41.917 39.1175 41.7274 39.0362 41.4999L38.955 41.2562C38.8412 40.9258 38.7654 40.6983 38.1804 40.6983H36.1004C35.5154 40.6983 35.4287 40.9529 35.3258 41.2562L35.2446 41.4999C35.1687 41.7329 35.1092 41.917 34.665 41.917H33.9012C33.4137 41.917 33.0292 41.5054 33.0779 41.0287L33.3054 38.5533C33.365 37.9412 33.4787 37.4429 34.5458 37.4429H39.7296C40.7967 37.4429 40.9104 37.9412 40.97 38.5533L41.2029 41.0287Z" stroke="#2CDFC9" stroke-linecap="round" stroke-linejoin="round"/>
<path d="M33.896 36.229H33.4897" stroke="#2CDFC9" stroke-linecap="round" stroke-linejoin="round"/>
<path d="M40.8022 36.229H40.396" stroke="#2CDFC9" stroke-linecap="round" stroke-linejoin="round"/>
<path d="M34.7085 39.0728H35.9272" stroke="#2CDFC9" stroke-linecap="round" stroke-linejoin="round"/>
<path d="M38.3647 39.0728H39.5835" stroke="#2CDFC9" stroke-linecap="round" stroke-linejoin="round"/>
</svg>
