<svg width="32" height="32" viewBox="0 0 32 32" fill="none" xmlns="http://www.w3.org/2000/svg">
<path d="M18.6667 2.66699H12C5.33333 2.66699 2.66667 5.33366 2.66667 12.0003V20.0003C2.66667 26.667 5.33333 29.3337 12 29.3337H20C26.6667 29.3337 29.3333 26.667 29.3333 20.0003V13.3337L18.6667 2.66699Z" stroke="#292D32" stroke-width="1.5" stroke-linecap="round" stroke-linejoin="round"/>
<path d="M18.667 2.66699V8.00033C18.667 11.3337 20.3337 13.0003 23.667 13.0003H29.0003" stroke="#292D32" stroke-width="1.5" stroke-linecap="round" stroke-linejoin="round"/>
<path d="M10.666 16.6667H15.333" stroke="#292D32" stroke-width="1.5" stroke-linecap="round" stroke-linejoin="round"/>
<path d="M10.666 21.333H14" stroke="#292D32" stroke-width="1.5" stroke-linecap="round" stroke-linejoin="round"/>
<path d="M17.667 24.0003L24.3337 17.3337C24.9737 16.6937 25.907 16.6937 26.547 17.3337C27.187 17.9737 27.187 18.907 26.547 19.547L19.8803 26.2137H17.667V24.0003Z" stroke="#292D32" stroke-width="1.5" stroke-linecap="round" stroke-linejoin="round"/>
<path d="M23.333 18.333L25.667 20.667" stroke="#292D32" stroke-width="1.5" stroke-linecap="round" stroke-linejoin="round"/>
</svg>
