<svg width="32" height="32" viewBox="0 0 32 32" fill="none" xmlns="http://www.w3.org/2000/svg">
<path d="M29.3327 22.3199V6.22659C29.3327 4.62659 28.026 3.43993 26.4393 3.57326H26.3593C23.5593 3.81326 19.306 5.23993 16.9327 6.73326L16.706 6.87993C16.3193 7.11993 15.6793 7.11993 15.2927 6.87993L14.9593 6.67993C12.586 5.19993 8.34601 3.78659 5.54602 3.55993C3.95935 3.42659 2.66602 4.62659 2.66602 6.21326V22.3199C2.66602 23.5999 3.70602 24.7999 4.98602 24.9599L5.37268 25.0133C8.26602 25.3999 12.7327 26.8666 15.2927 28.2666L15.346 28.2933C15.706 28.4933 16.2793 28.4933 16.626 28.2933C19.186 26.8799 23.666 25.3999 26.5727 25.0133L27.0127 24.9599C28.2927 24.7999 29.3327 23.5999 29.3327 22.3199Z" stroke="#292D32" stroke-width="1.5" stroke-linecap="round" stroke-linejoin="round"/>
<path d="M16 7.32031V27.3203" stroke="#292D32" stroke-width="1.5" stroke-linecap="round" stroke-linejoin="round"/>
<path d="M10.334 11.3203H7.33398" stroke="#292D32" stroke-width="1.5" stroke-linecap="round" stroke-linejoin="round"/>
<path d="M11.334 15.3203H7.33398" stroke="#292D32" stroke-width="1.5" stroke-linecap="round" stroke-linejoin="round"/>
<path d="M20 5.5002V14.5002C20 15.3002 20.88 15.7702 21.55 15.3402L22.49 14.7202C22.83 14.5002 23.26 14.5002 23.59 14.7202L24.48 15.3202C25.14 15.7602 26.03 15.2902 26.03 14.4902V3.64645" stroke="#292D32" stroke-width="1.5" stroke-miterlimit="10" stroke-linecap="round" stroke-linejoin="round"/>
</svg>
